<svg id="Capa_1" data-name="Capa 1" xmlns="http://www.w3.org/2000/svg" xmlns:xlink="http://www.w3.org/1999/xlink" viewBox="0 0 283.46 283.46"><defs><style>.cls-1{fill:none;}.cls-2{clip-path:url(#clip-path);}.cls-3{fill:#003b69;}</style><clipPath id="clip-path"><path class="cls-1" d="M181.5,117.77c3.64,49.91,47.44,81.92,91,81.92,4.78,0,4.23.77,11,.16l-.58-75-.29-8.16s-30.26-.49-57.68-.49c-22.73,0-43.5.35-43.41,1.6"/></clipPath></defs><g class="cls-2"><path class="cls-3" d="M283.28,126.69c-4.88-.25-6.64-.16-11.13-2-3.51-1.45-5.63-4.26-9.35-5.1a27.56,27.56,0,0,0-15.7,1c-3.94,1.41-7.81,3-11.76,4.36a26.56,26.56,0,0,1-10,1.69A36.66,36.66,0,0,1,213.75,124a104.09,104.09,0,0,0-11.55-4.18c-6.2-1.59-9-.9-14.94,1.31-4.16,1.55-8.2,3.44-12.53,4.54a25.8,25.8,0,0,1-7.94,1,41.34,41.34,0,0,1-12.53-3.13c-3.84-1.54-5-3.13-9.07-4a27.87,27.87,0,0,0-15.38,1.13c-2.79,1-5.51,2.09-8.28,3.14-.43.17-.85.25-.52.94a74.12,74.12,0,0,0,4,8,1.1,1.1,0,0,0,1.59.51,39.11,39.11,0,0,1,10.17-2.76,28.45,28.45,0,0,1,12.67,1.65c3.68,1.32,4.66,2.76,8.33,4.12,7.63,2.82,15.11,2.05,22.51-1A82.43,82.43,0,0,1,192,131.12c6.11-1.48,8.83-.69,14.63,1.5,4,1.51,7.94,3.28,12.09,4.43,6.71,1.87,13.2.91,19.56-1.61a90,90,0,0,1,12.11-4.33c5.7-1.38,8.89-.93,14.36,1,4.27,1.49,6.48,3.62,10.86,4.8a25.81,25.81,0,0,0,7.71,1.09Z"/><path class="cls-3" d="M283.28,149.77c-4.88-.26-6.64.11-11.13-1.74-3.54-1.46-5.7-4.56-9.46-5.42a29.46,29.46,0,0,0-16.91,1.49c-4.2,1.54-8.27,3.48-12.64,4.58a25.91,25.91,0,0,1-7.81,1,38.39,38.39,0,0,1-11.58-2.7,103.36,103.36,0,0,0-11.55-4.18c-6.23-1.57-9.09-.89-15,1.35-4.12,1.55-8.14,3.41-12.43,4.5a25.73,25.73,0,0,1-7.93,1,40.62,40.62,0,0,1-12.53-3.13c-4-1.61-5.28-3.29-9.51-4.14a25.9,25.9,0,0,0-12.2.49c1.2,1.35,2.3,2.67,3.49,3.9,1.64,1.73,3.35,3.39,5,5.08a9.93,9.93,0,0,0,4.7,2.47c5.57,1.92,5.29,2.48,9.59,4.1a33.26,33.26,0,0,0,13.55,2.58,37.36,37.36,0,0,0,11.56-2.81A92,92,0,0,1,192,154.19c6.11-1.49,8.83-.68,14.63,1.5,3.77,1.42,7.45,3.05,11.32,4.21,6.91,2.1,13.62,1.24,20.23-1.36,3.6-1.41,7.16-2.92,10.9-4,6.12-1.77,8.68-1.68,14.62.39,4.26,1.49,7.53,3.87,11.91,5.06a26.12,26.12,0,0,0,7.71,1.08Z"/><path class="cls-3" d="M283.28,172.84a26.66,26.66,0,0,1-11.13-2.51c-3.5-1.44-5.63-3.78-9.34-4.62a27.77,27.77,0,0,0-15.71,1c-3.93,1.41-7.8,3-11.74,4.36a26.82,26.82,0,0,1-10,1.7,36.93,36.93,0,0,1-11.58-2.69,107.57,107.57,0,0,0-11.55-4.19c-6.23-1.63-9.09-.87-15.05,1.36-4.12,1.54-8.14,3.36-12.42,4.51-2.17.58-4.41.73-6.62,1.11,0,.33.31.37.5.46,4.41,2.34,8.88,4.52,13.46,6.53a2.42,2.42,0,0,0,2.07,0,41,41,0,0,1,11.68-3.29c3.5-.33,3.76.06,7.17,1,4.52,1.26,8.73,3.34,13.17,4.81a29.65,29.65,0,0,0,12.09,1.68,39.85,39.85,0,0,0,11.28-3,78.6,78.6,0,0,1,10.83-3.81c5.7-1.38,9.94-.34,15.41,1.57,4.27,1.49,5.41,3,9.79,4.23a26.46,26.46,0,0,0,7.71,1.09Z"/><path class="cls-3" d="M283.28,195.91a41.74,41.74,0,0,1-14-3.41c-3.51-1.44-2.78-2.87-6.49-3.71a28.68,28.68,0,0,0-15.71,1c-4.23,1.41-8.26,3.33-12.53,4.59l-2.61.76a286.6,286.6,0,0,0,51.32,4.47Z"/></g><path class="cls-3" d="M268.6,205.75c-92.71.28-96.43-87.79-98-88.65-.61,0-80.29-4.53-84.9-5.48-2.15-.51-4.32-.92-6.48-1.35-.67-.14-1-.38-1-1.19q0-13.41,0-26.85c0-.88.29-1.11,1.12-1.09a49.69,49.69,0,0,0,7-.28c-1.51-1.2-3-2.41-4.54-3.59C70.87,68.82,60,60.4,49.17,51.91a1.83,1.83,0,0,0-2.74,0c-9.86,7.75-19.78,15.42-29.68,23.12L9.16,81c.41.48.88.32,1.27.27,2.08-.28,4.16.11,6.24,0,.65,0,.8.31.8.88,0,6.86,0,13.74,0,20.6,0,.64-.26.8-.86.8C12,103.56,7.34,102,2.69,102,0,102,0,101.83,0,104.49V230.4c0,2-.24,1.74,1.71,1.74H283.46V206.08C276.9,206.24,275.15,206,268.6,205.75ZM32.82,212.92h-4V186.39h-.1l-5.27,2.85-.8-3.13,6.64-3.55h3.5ZM54.69,201.8H43.16v-3H54.69Zm16.38,11.12h-4V186.39H67l-5.28,2.85-.79-3.13,6.63-3.55h3.5Zm20.66.51c-5.93,0-9.94-5.56-10-15.59,0-10.19,4.39-15.79,10.56-15.79,6.39,0,10,5.69,10,15.36C102.28,207.73,98.46,213.43,91.73,213.43Zm35.32-.51-7.76-11.57-2.24,2.58v9h-3V189.36h3v11.35h.11c.63-.9,1.26-1.74,1.85-2.51l7.21-8.84H130l-8.53,10,9.2,13.56Zm26.38,0-.6-10.35c-.17-3.29-.38-7.23-.35-10.17h-.1c-.8,2.76-1.78,5.69-3,8.95l-4.16,11.43h-2.31l-3.81-11.22c-1.12-3.32-2.06-6.37-2.73-9.16h-.06c-.07,2.94-.25,6.88-.46,10.42l-.63,10.1h-2.9L134,189.36h3.87l4,11.39c1,2.9,1.79,5.49,2.38,7.94h.1c.6-2.38,1.44-5,2.49-7.94l4.19-11.39h3.88l1.47,23.56Zm-7.5-43.78v-9H30.34v9L6.61,155.43l23.73-13.7v9H145.93v-9l23.74,13.71Z"/><path class="cls-3" d="M92,185.23c-3.6,0-6.21,4.38-6.21,12.65,0,7.89,2.43,12.37,6.17,12.37,4.2,0,6.2-4.9,6.2-12.65C98.17,190.13,96.26,185.23,92,185.23Z"/></svg>