<svg id="Capa_1" data-name="Capa 1" xmlns="http://www.w3.org/2000/svg" viewBox="0 0 283.46 283.46"><defs><style>.cls-1{fill:#003b69;}</style></defs><path class="cls-1" d="M276.51,283.42h-3.58l-221.39-.05a5.82,5.82,0,0,1-4.95-8.83L55,260.75c3.36-5.48,6.94-10.89,10.66-16.07A161.56,161.56,0,0,0,5.8,233.19a5.81,5.81,0,0,1,0-11.61,172.94,172.94,0,0,1,67.09,13.51A263,263,0,0,1,96,209.51,208.68,208.68,0,0,0,5.8,188.72a5.8,5.8,0,0,1,0-11.6,220.19,220.19,0,0,1,99.3,23.95,260.12,260.12,0,0,1,25.6-19.89A249.28,249.28,0,0,0,5.8,147.59,5.81,5.81,0,0,1,5.8,136c8.12,0,16.3.38,24.32,1.14l11.06,1.26c4,.56,7.67,1.15,11.28,1.81V119.44a5.81,5.81,0,0,1,1.69-4.1l30.93-31.1a5.81,5.81,0,0,1,4.11-1.71h63.14a5.8,5.8,0,0,1,4.12,1.71l30.92,31.1a5.81,5.81,0,0,1,1.69,4.1v31.93a264.87,264.87,0,0,1,30.39-8.92V128.62c-19.93-16.92-30.91-39.2-30.91-62.74,0-24.47,11.75-47.39,33.09-64.55a5.78,5.78,0,0,1,7.26,0C250.23,18.49,262,41.41,262,65.88c0,23.55-11,45.83-30.91,62.74v11.46a260.65,260.65,0,0,1,46.43-4.2,5.82,5.82,0,0,1,5.81,5.81c0,1.05,0,15.57,0,34.59,0,36.08,0,88.37,0,95.54,0,.91,0,1.79.06,2.63.1,3.18.18,5.7-1.35,7.29-1.08,1.12-2.85,1.66-5.56,1.68ZM5.8,222.14a5.24,5.24,0,0,0,0,10.48,162.3,162.3,0,0,1,60.41,11.67l.34.13-.22.3C62.54,250,58.89,255.47,55.48,261l-8.41,13.79a5.23,5.23,0,0,0,1.75,7.2,5.09,5.09,0,0,0,2.72.77l221.39.05h3.57c2.56,0,4.2-.5,5.16-1.5,1.37-1.42,1.29-3.83,1.19-6.88,0-.84-.05-1.73-.05-2.65,0-7.17,0-59.46,0-95.54,0-19,0-33.54,0-34.59a5.25,5.25,0,0,0-5.25-5.24,260.41,260.41,0,0,0-46.66,4.25l-.33.06v-12.4l.1-.09c19.86-16.81,30.81-39,30.81-62.39,0-24.3-11.68-47.06-32.88-64.11a5.23,5.23,0,0,0-6.56,0c-21.2,17.05-32.87,39.81-32.87,64.11,0,23.41,10.94,45.57,30.8,62.39l.1.09V142.9l-.22,0A263.67,263.67,0,0,0,188.87,152l-.38.13V119.44a5.25,5.25,0,0,0-1.52-3.7l-30.92-31.1a5.31,5.31,0,0,0-3.72-1.55H89.19a5.25,5.25,0,0,0-3.71,1.55l-30.93,31.1a5.26,5.26,0,0,0-1.53,3.7v21.43l-.33-.06c-3.71-.69-7.5-1.3-11.58-1.87l-11-1.26c-8-.75-16.17-1.14-24.27-1.14A5.24,5.24,0,0,0,5.8,147a249.9,249.9,0,0,1,125.57,33.89l.39.23-.37.25a260.88,260.88,0,0,0-26.06,20.23l-.15.13-.17-.09a219.65,219.65,0,0,0-99.21-24,5.24,5.24,0,1,0,0,10.47,209.28,209.28,0,0,1,90.78,21l.37.18-.29.28a262.74,262.74,0,0,0-23.46,26l-.13.16-.2-.08A172.49,172.49,0,0,0,5.8,222.14Zm135.78-47.33-.15-.09c-5.27-3.22-10.63-6.24-15.92-9l-.15-.08v-41H178v31.57l-.17.07a258.06,258.06,0,0,0-27.63,13.41c-2.78,1.56-5.63,3.23-8.49,5Zm-15.66-9.5c5.21,2.7,10.47,5.68,15.66,8.83,2.8-1.72,5.62-3.37,8.35-4.9a258.93,258.93,0,0,1,27.52-13.37V125.24H125.92Zm-11-4.79-.4-.18c-2.6-1.2-5.2-2.35-7.72-3.42l-.18-.07V138.13a5.24,5.24,0,0,0-5.23-5.25H77a5.24,5.24,0,0,0-5.23,5.25v6.92l-.36-.09c-3-.76-5.41-1.36-7.73-1.89l-.21,0V124.68h51.36Zm-7.73-4c2.34,1,4.75,2.06,7.17,3.16v-34.4H64.07v17.33c2.16.49,4.46,1.05,7.17,1.75v-6.19a5.81,5.81,0,0,1,5.8-5.82h24.3a5.81,5.81,0,0,1,5.8,5.82Zm-11-3.76-.38-.14c-4.38-1.62-8.84-3.13-13.23-4.49l-.2-.06v-4.67H96.1Zm-13.25-5.11c4.22,1.31,8.48,2.75,12.69,4.3v-8H82.85Zm87.81-33.41H122.3l-.09-.09L101.79,93.57h48.36l.09.09Zm-48.13-.57H169.3L149.92,94.14H103.15Zm-15,.57H70.87L89.19,95.76l.2.2Zm-35.29-.57h33.93l-17-17.07Zm158.28.39V71A5.24,5.24,0,1,0,220,71v43l-.49-.51c-13-13.81-19.95-30.28-19.95-47.63,0-19.6,9-38.42,25.48-53l.19-.17.19.17c16.43,14.58,25.48,33.4,25.48,53,0,17.34-6.89,33.81-19.94,47.62ZM225.26,13.47c-16.19,14.44-25.11,33.05-25.11,52.41,0,17,6.68,33.12,19.31,46.72V71a5.81,5.81,0,1,1,11.61,0V112.6c12.63-13.6,19.3-29.74,19.3-46.72C250.37,46.52,241.45,27.91,225.26,13.47Z"/><path class="cls-1" d="M283.08,271.82c0-10.95-.05-127.09-.05-130.13a5.54,5.54,0,0,0-5.53-5.53,259.89,259.89,0,0,0-46.71,4.26V128.49c20-16.89,30.91-39,30.91-62.61,0-24.39-11.71-47.23-33-64.33a5.53,5.53,0,0,0-6.92,0c-21.27,17.1-33,39.94-33,64.33,0,23.57,11,45.72,30.91,62.61v14.18a261.16,261.16,0,0,0-30.95,9.1V119.44a5.55,5.55,0,0,0-1.61-3.9l-30.92-31.1a5.55,5.55,0,0,0-3.92-1.63H89.19a5.51,5.51,0,0,0-3.91,1.63l-30.93,31.1a5.51,5.51,0,0,0-1.61,3.9v21.09q-5.77-1.07-11.6-1.87l-11-1.26Q18,136.26,5.8,136.26a5.53,5.53,0,0,0,0,11.05,249,249,0,0,1,125.43,33.85,261,261,0,0,0-26.09,20.25,219.63,219.63,0,0,0-99.34-24,5.52,5.52,0,1,0,0,11,208.41,208.41,0,0,1,90.66,21,263,263,0,0,0-23.48,26A172.72,172.72,0,0,0,5.8,221.86a5.53,5.53,0,0,0,0,11,161.92,161.92,0,0,1,60.31,11.64q-5.74,8-10.87,16.34l-8.41,13.8a5.53,5.53,0,0,0,1.84,7.59,5.47,5.47,0,0,0,2.87.8l225,.05C284.54,283.07,283.08,278.39,283.08,271.82ZM89.19,96.16l17.65,17.75H71.55Zm6.63,56.15q-6.58-2.43-13.25-4.49v-4.18H95.82Zm18.77,7.77c-2.56-1.17-5.13-2.31-7.73-3.42V138.13a5.52,5.52,0,0,0-5.52-5.53H77a5.52,5.52,0,0,0-5.52,5.53v6.55c-2.57-.66-5.15-1.3-7.73-1.88V125h50.8ZM102.47,93.86H150l19.94,20H122.41Zm75.26,62.2a256.34,256.34,0,0,0-27.66,13.43q-4.31,2.4-8.49,5-7.85-4.78-15.94-9V125h52.09ZM225.26,65.5A5.53,5.53,0,0,0,219.74,71v42.28c-12.89-13.64-19.87-30.13-19.87-47.43,0-19.63,9-38.23,25.39-52.79,16.42,14.56,25.39,33.16,25.39,52.79,0,17.3-7,33.79-19.86,47.43V71A5.54,5.54,0,0,0,225.26,65.5Z"/></svg>