<svg id="Capa_1" data-name="Capa 1" xmlns="http://www.w3.org/2000/svg" viewBox="0 0 283.46 283.46"><defs><style>.cls-1{fill:#003b69;}</style></defs><path class="cls-1" d="M128,187.19c-.13-4.71-2.36-17.9-19.86-40-17.5,22.11-19.74,35.3-19.87,40v.11c-.07.78-.11,1.56-.11,2.34,0,12.3,9,22.3,20,22.3a18.23,18.23,0,0,0,8-1.9,19.59,19.59,0,0,0,2-1.15l.37-.25a20.13,20.13,0,0,0,1.66-1.26l.26-.22a21.65,21.65,0,0,0,3.37-3.76l.05-.08a21,21,0,0,0,1.32-2.13l.08-.15a25,25,0,0,0,2.84-11.4c0-.77,0-1.56-.11-2.34ZM115.8,169.87a1.75,1.75,0,0,1,.87-2.3,1.72,1.72,0,0,1,2.28.86,114.36,114.36,0,0,1,5.55,15.46,1.73,1.73,0,0,1-3.32,1A110.44,110.44,0,0,0,115.8,169.87Zm7.76,22.47a2.3,2.3,0,1,1,2.26-2.26A2.26,2.26,0,0,1,123.56,192.34Z"/><path class="cls-1" d="M144.52,23.24v-.17l-.11.08-.11-.08v.17L2.68,136.53H59.43V250h56.72V213.64a21.24,21.24,0,0,1-8,1.59c-9.46,0-17.6-6.25-21.24-15.18a14,14,0,0,1-2.83.3c-8.75,0-15.86-7.86-15.86-17.52,0-.6,0-1.21.09-1.82.09-3.57,1.81-13.78,15.44-30.61a.44.44,0,0,1,.66,0,103.17,103.17,0,0,1,8.91,12.67,144.17,144.17,0,0,1,13.55-19.55,1.68,1.68,0,0,1,2.55,0c19.24,23.76,21.71,38.32,21.88,43.53.08.86.12,1.73.12,2.59a27.08,27.08,0,0,1-.27,3.63h41.51V250H229.4V136.53h56.74Zm-.11,149-38.17-41.06h25V61.43h26.28v69.72h25Z"/></svg>