<svg id="Capa_1" data-name="Capa 1" xmlns="http://www.w3.org/2000/svg" viewBox="0 0 283.46 283.46"><defs><style>.cls-1{fill:#003b69;}.cls-2{fill:none;stroke:#fff;stroke-miterlimit:10;}</style></defs><path class="cls-1" d="M107.45,198.39H140l3.17,46.94h0l0,.38H104.3l0-.38h0ZM109.57,121h28.36v.07l1.05,47H108.53V168h0Zm1.06-30.9,1-47h23.09l2.12,47h0v.16H110.63ZM76.78,18.3,0,265.17H247.49l-78-246.87Z"/><path class="cls-1" d="M280.38,196.5l-12.45-7.19L278.72,183a4.18,4.18,0,1,0-4.25-7.2l-14.84,8.76-22.4-12.93,22.39-12.92,14.85,8.75a4.18,4.18,0,1,0,4.24-7.2l-10.78-6.36,12.45-7.18a4.18,4.18,0,0,0-4.18-7.23l-12.44,7.18-.11-12.52a4.18,4.18,0,0,0-8.36.07l.16,17.24-22.4,12.93V138.5l15-8.49a4.17,4.17,0,0,0-4.1-7.27l-10.91,6.16V114.54a4.18,4.18,0,0,0-8.36,0V128.9l-10.89-6.16a4.18,4.18,0,1,0-4.11,7.27l15,8.49v25.85l-22.38-12.93.16-17.24a4.18,4.18,0,0,0-4.15-4.21h0a4.18,4.18,0,0,0-4.18,4.14L194,146.63l-12.43-7.18a4.18,4.18,0,1,0-4.18,7.23l12.43,7.18L179,160.22a4.18,4.18,0,0,0,4.25,7.2l14.85-8.75,22.39,12.92-22.39,12.93-14.85-8.76A4.18,4.18,0,0,0,179,183l10.78,6.35-12.43,7.19a4.18,4.18,0,0,0,4.18,7.23L194,196.55l.12,12.52a4.19,4.19,0,0,0,4.18,4.15s0,0,0,0a4.17,4.17,0,0,0,4.15-4.21l-.16-17.24,22.38-12.93v25.86l-15,8.48a4.18,4.18,0,0,0,2.06,7.82,4.25,4.25,0,0,0,2.05-.54l10.89-6.16v14.36a4.18,4.18,0,0,0,8.36,0V214.28L244,220.44a4.18,4.18,0,0,0,4.1-7.28l-15-8.48V178.82l22.4,12.93L255.29,209a4.18,4.18,0,0,0,4.13,4.23h.05a4.19,4.19,0,0,0,4.17-4.15l.11-12.52,12.45,7.18a4.18,4.18,0,0,0,4.18-7.23"/><path class="cls-2" d="M280.38,196.5l-12.45-7.19L278.72,183a4.18,4.18,0,1,0-4.25-7.2l-14.84,8.76-22.4-12.93,22.39-12.92,14.85,8.75a4.18,4.18,0,1,0,4.24-7.2l-10.78-6.36,12.45-7.18a4.18,4.18,0,0,0-4.18-7.23l-12.44,7.18-.11-12.52a4.18,4.18,0,0,0-8.36.07l.16,17.24-22.4,12.93V138.5l15-8.49a4.17,4.17,0,0,0-4.1-7.27l-10.91,6.16V114.54a4.18,4.18,0,0,0-8.36,0V128.9l-10.89-6.16a4.18,4.18,0,1,0-4.11,7.27l15,8.49v25.85l-22.38-12.93.16-17.24a4.18,4.18,0,0,0-4.15-4.21h0a4.18,4.18,0,0,0-4.18,4.14L194,146.63l-12.43-7.18a4.18,4.18,0,1,0-4.18,7.23l12.43,7.18L179,160.22a4.18,4.18,0,0,0,4.25,7.2l14.85-8.75,22.39,12.92-22.39,12.93-14.85-8.76A4.18,4.18,0,0,0,179,183l10.78,6.35-12.43,7.19a4.18,4.18,0,0,0,4.18,7.23L194,196.55l.12,12.52a4.19,4.19,0,0,0,4.18,4.15s0,0,0,0a4.17,4.17,0,0,0,4.15-4.21l-.16-17.24,22.38-12.93v25.86l-15,8.48a4.18,4.18,0,0,0,2.06,7.82,4.25,4.25,0,0,0,2.05-.54l10.89-6.16v14.36a4.18,4.18,0,0,0,8.36,0V214.28L244,220.44a4.18,4.18,0,0,0,4.1-7.28l-15-8.48V178.82l22.4,12.93L255.29,209a4.18,4.18,0,0,0,4.13,4.23h.05a4.19,4.19,0,0,0,4.17-4.15l.11-12.52,12.45,7.18a4.18,4.18,0,0,0,4.18-7.23Z"/></svg>