<svg xmlns="http://www.w3.org/2000/svg" width="54.651" height="72.868" viewBox="0 0 54.651 72.868">
  <path id="Icon_awesome-file-pdf" data-name="Icon awesome-file-pdf" d="M25.888,36.448c-.712-2.277-.7-6.675-.285-6.675C26.8,29.773,26.685,35.025,25.888,36.448Zm-.242,6.718A65.671,65.671,0,0,1,21.6,52.089a52.407,52.407,0,0,1,8.952-3.117A18.436,18.436,0,0,1,25.646,43.166ZM12.254,60.927c0,.114,1.879-.769,4.967-5.721C16.267,56.1,13.079,58.693,12.254,60.927ZM35.3,22.771H54.651V69.452a3.407,3.407,0,0,1-3.416,3.416H3.416A3.407,3.407,0,0,1,0,69.452V3.416A3.407,3.407,0,0,1,3.416,0H31.88V19.356A3.426,3.426,0,0,0,35.3,22.771ZM34.157,47.222a14.284,14.284,0,0,1-6.077-7.657c.64-2.633,1.651-6.632.882-9.137-.669-4.184-6.034-3.771-6.8-.968-.712,2.6-.057,6.276,1.153,10.959A133.643,133.643,0,0,1,17.505,52.63c-.014,0-.014.014-.028.014C13.62,54.623,7,58.978,9.72,62.322a4.422,4.422,0,0,0,3.06,1.423c2.548,0,5.081-2.562,8.7-8.8,3.672-1.21,7.7-2.718,11.243-3.3a21.569,21.569,0,0,0,9.109,2.775c4.156,0,4.44-4.554,2.8-6.177-1.978-1.936-7.728-1.381-10.475-1.025Zm19.5-32.278L39.707,1a3.413,3.413,0,0,0-2.419-1h-.854V18.217H54.651v-.868A3.4,3.4,0,0,0,53.655,14.944ZM43.109,51.278c.584-.384-.356-1.694-6.091-1.281C42.3,52.246,43.109,51.278,43.109,51.278Z" fill="#909090"/>
</svg>
