<svg xmlns="http://www.w3.org/2000/svg" width="82.123" height="63.876" viewBox="0 0 82.123 63.876">
  <path id="Trazado_306" data-name="Trazado 306" d="M77.308-59.305c-7.813.443-23.343,2.057-32.93,7.926A2.192,2.192,0,0,0,43.342-49.5V2.378A2.256,2.256,0,0,0,46.661,4.3C56.525-.663,70.79-2.018,77.843-2.388a4.447,4.447,0,0,0,4.28-4.371V-54.928A4.47,4.47,0,0,0,77.308-59.305ZM37.745-51.379C28.159-57.248,12.63-58.86,4.816-59.305A4.472,4.472,0,0,0,0-54.928v48.17A4.445,4.445,0,0,0,4.28-2.387c7.056.371,21.328,1.727,31.192,6.694a2.25,2.25,0,0,0,3.309-1.919V-49.527A2.147,2.147,0,0,0,37.745-51.379Z" transform="translate(0 59.313)" fill="#909090"/>
</svg>
