<svg data-name="Capa 1" xmlns="http://www.w3.org/2000/svg" viewBox="0 0 45.98 50"><path data-name="Trazado 442" d="M23 50a1.32 1.32 0 01-.44-.08C14.75 47 0 34.83 0 9.3a1.26 1.26 0 01.81-1.17l21.75-8a1.16 1.16 0 01.86 0l21.74 8A1.25 1.25 0 0146 9.3C46 34.83 31.22 47 23.42 49.92A1.26 1.26 0 0123 50zm0-47.38a.87.87 0 00-.28 0l-5.24 1.99a.77.77 0 00-.5.72v38a.76.76 0 00.29.61 28.33 28.33 0 005.39 3.37.72.72 0 00.33.07.62.62 0 00.33-.08 28.18 28.18 0 005.37-3.37.76.76 0 00.29-.61V5.33a.77.77 0 00-.5-.72l-5.23-1.94a.8.8 0 00-.26 0zm9.26 3.43a.77.77 0 00-.77.77v32.77a.76.76 0 001.37.47c6.69-7.24 10.36-17.39 10.62-29.35A.78.78 0 0043 10L32.51 6.1a.75.75 0 00-.26 0zm-18.52 0a.87.87 0 00-.28 0L3 10a.77.77 0 00-.5.74c.27 12.15 3.85 22 10.66 29.39a.75.75 0 00.56.25.87.87 0 00.28-.08.77.77 0 00.49-.72V6.82a.78.78 0 00-.77-.77z" fill="#efefee"/></svg>