<svg id="Capa_1" data-name="Capa 1" xmlns="http://www.w3.org/2000/svg" viewBox="0 0 283.46 283.46"><defs><style>.cls-1{fill:#003b69;}</style></defs><path class="cls-1" d="M78,23c-10.62,5.32-14.17,19.49-7.09,26.58,8.87-16,23-10.63,44.3,7.08,14.17,12.4,33.66,1.78,33.66,1.78s3.54,21.26,30.11,24.8c30.13,3.54,40.76-14.18,40.76-14.18s7.09,17.72,33.66,7.09c19.48-7.09,12.39-19.49,12.39-19.49s17.72,0,17.72-12.39c0-15.95-19.49-14.18-19.49-14.18S267.52,12.41,248,10.64c-17.72-1.78-23,8.85-23,8.85S219.69,0,193.12,0c-24.81,0-33.68,23-33.68,23s-7.08-10.62-28.34-10.62a27.22,27.22,0,0,0-23,12.4S88.58,15.94,78,23"/><path class="cls-1" d="M212.6,214.37v-37.2l-70.87,37.2v-37.2H99.21l-10.63-124H53.15l-10.62,124H0v106.3H283.46V177.17ZM106.3,248H35.43V212.6H106.3Z"/></svg>